<?xml version="1.0" encoding="UTF-8"?> <svg xmlns="http://www.w3.org/2000/svg" id="Layer_1" data-name="Layer 1" viewBox="0 0 63.45 19.85"><defs><style> .cls-1 { fill: #fff; stroke-width: 0px; } </style></defs><path class="cls-1" d="m11.59,11.9c0,.37-.33.7-.7.7-.33,0-.55-.18-.7-.48l-.98-2.2H2.94l-.92,2.2c-.13.3-.37.48-.68.48-.39,0-.7-.33-.7-.7,0-.13.04-.28.11-.46L5.42.5c.15-.33.37-.5.68-.5s.54.17.68.5l4.68,10.94c.09.19.13.33.13.46Zm-8.11-3.27h5.17l-2.55-6.47-2.62,6.47Z"></path><path class="cls-1" d="m13.27,10.51c-.11-.13-.17-.28-.17-.44,0-.37.31-.67.68-.67.22,0,.41.09.55.28.81,1.03,1.85,1.59,3.03,1.59,1.48,0,2.46-.83,2.46-2.03,0-.91-.46-1.4-2.03-2.14l-1.37-.65c-1.94-.92-2.75-1.9-2.75-3.27,0-1.83,1.57-3.18,3.68-3.18,1.37,0,2.51.52,3.36,1.46.2.22.26.42.26.59,0,.33-.33.65-.68.65-.18,0-.35-.09-.5-.24-.67-.74-1.52-1.13-2.46-1.13-1.29,0-2.16.7-2.16,1.77,0,.87.39,1.29,1.96,2.05l1.35.65c2.05.98,2.85,1.94,2.85,3.4,0,2-1.61,3.4-3.94,3.4-1.57,0-3.16-.79-4.12-2.09Z"></path><path class="cls-1" d="m36,6.3c0,3.51-2.79,6.3-6.34,6.3s-6.32-2.77-6.32-6.3S26.11,0,29.66,0s6.34,2.79,6.34,6.3Zm-11.16-.02c0,2.86,2.07,4.99,4.84,4.99s4.82-2.14,4.82-4.99-2.07-4.95-4.82-4.95-4.84,2.11-4.84,4.95Z"></path><path class="cls-1" d="m40.06.76v11.09c0,.42-.31.76-.72.76s-.72-.33-.72-.76V.76C38.61.33,38.91,0,39.34,0s.72.33.72.76Z"></path><path class="cls-1" d="m60.2,11.9c0,.37-.33.7-.7.7-.33,0-.55-.18-.7-.48l-.98-2.2h-6.26l-.92,2.2c-.13.3-.37.48-.68.48-.39,0-.7-.33-.7-.7,0-.13.04-.28.11-.46L54.03.5c.15-.33.37-.5.68-.5s.54.17.68.5l4.68,10.94c.09.19.13.33.13.46Zm-8.11-3.27h5.17l-2.55-6.47-2.62,6.47Z"></path><g><path class="cls-1" d="m.06,19.04c-.04-.05-.06-.11-.06-.17,0-.14.12-.26.27-.26.09,0,.16.04.22.11.32.4.72.62,1.18.62.58,0,.96-.32.96-.79,0-.35-.18-.55-.79-.83l-.53-.25c-.75-.36-1.07-.74-1.07-1.27,0-.71.61-1.24,1.43-1.24.53,0,.98.2,1.31.57.08.09.1.17.1.23,0,.13-.13.25-.27.25-.07,0-.14-.04-.19-.09-.26-.29-.59-.44-.96-.44-.5,0-.84.27-.84.69,0,.34.15.5.76.8l.52.25c.8.38,1.11.75,1.11,1.32,0,.78-.62,1.32-1.53,1.32-.61,0-1.23-.31-1.6-.81Z"></path><path class="cls-1" d="m8.9,17.4c0,1.37-1.09,2.45-2.47,2.45s-2.46-1.08-2.46-2.45,1.08-2.45,2.46-2.45,2.47,1.08,2.47,2.45Zm-4.34,0c0,1.11.8,1.94,1.88,1.94s1.88-.83,1.88-1.94-.81-1.93-1.88-1.93-1.88.82-1.88,1.93Z"></path><path class="cls-1" d="m13.64,19.58c0,.14-.13.27-.27.27-.13,0-.22-.07-.27-.19l-.38-.85h-2.44l-.36.85c-.05.12-.14.19-.27.19-.15,0-.27-.13-.27-.27,0-.05.01-.11.04-.18l1.82-4.25c.06-.13.14-.19.27-.19s.21.06.27.19l1.82,4.25c.04.07.05.13.05.18Zm-3.15-1.27h2.01l-.99-2.52-1.02,2.52Z"></path><path class="cls-1" d="m14.54,19.55v-4.23c0-.17.12-.29.29-.29h1.37c.91,0,1.52.55,1.52,1.37s-.61,1.39-1.52,1.39h-1.11v1.77c0,.17-.12.29-.28.29s-.28-.13-.28-.29Zm1.65-2.27c.59,0,.95-.33.95-.88s-.36-.88-.95-.88h-1.09v1.75h1.09Z"></path><path class="cls-1" d="m20.46,19.55v-4.23c0-.17.12-.29.29-.29h2.44c.14,0,.26.11.26.25,0,.14-.11.25-.26.25h-2.18v1.63h1.77c.14,0,.26.12.26.25,0,.14-.11.26-.26.26h-1.77v1.88c0,.17-.12.29-.28.29s-.28-.13-.28-.29Z"></path><path class="cls-1" d="m28.8,17.4c0,1.37-1.09,2.45-2.47,2.45s-2.46-1.08-2.46-2.45,1.08-2.45,2.46-2.45,2.47,1.08,2.47,2.45Zm-4.34,0c0,1.11.8,1.94,1.88,1.94s1.88-.83,1.88-1.94-.81-1.93-1.88-1.93-1.88.82-1.88,1.93Z"></path><path class="cls-1" d="m33.38,19.6c0,.14-.11.25-.27.25-.09,0-.17-.05-.24-.15l-1.43-1.92h-1.08v1.78c0,.16-.12.29-.28.29s-.28-.13-.28-.29v-4.25c0-.16.12-.29.29-.29h1.38c.91,0,1.52.55,1.52,1.37,0,.63-.36,1.11-.94,1.29l1.24,1.69c.06.07.09.14.09.22Zm-3.02-2.32h1.09c.6,0,.96-.33.96-.87s-.37-.88-.96-.88h-1.09v1.75Z"></path><path class="cls-1" d="m39.74,18.4c0,.82-.6,1.37-1.5,1.37h-1.66c-.17,0-.29-.13-.29-.29v-4.15c0-.17.12-.29.29-.29h1.34c.81,0,1.35.48,1.35,1.2,0,.4-.17.72-.45.93.58.17.93.62.93,1.24Zm-2.9-2.87v1.47h1.01c.52,0,.83-.27.83-.74s-.31-.73-.83-.73h-1.01Zm2.32,2.86c0-.55-.37-.88-.98-.88h-1.34v1.75h1.34c.61,0,.98-.33.98-.88Z"></path><path class="cls-1" d="m44.29,19.6c0,.14-.11.25-.27.25-.09,0-.17-.05-.24-.15l-1.43-1.92h-1.08v1.78c0,.16-.12.29-.28.29s-.28-.13-.28-.29v-4.25c0-.16.12-.29.29-.29h1.38c.91,0,1.52.55,1.52,1.37,0,.63-.36,1.11-.94,1.29l1.24,1.69c.06.07.09.14.09.22Zm-3.02-2.32h1.09c.6,0,.96-.33.96-.87s-.37-.88-.96-.88h-1.09v1.75Z"></path><path class="cls-1" d="m49.68,17.4c0,1.37-1.09,2.45-2.47,2.45s-2.46-1.08-2.46-2.45,1.08-2.45,2.46-2.45,2.47,1.08,2.47,2.45Zm-4.34,0c0,1.11.8,1.94,1.88,1.94s1.88-.83,1.88-1.94-.81-1.93-1.88-1.93-1.88.82-1.88,1.93Z"></path><path class="cls-1" d="m57.15,15.23s0,.1-.04.18l-1.53,4.25c-.04.12-.14.19-.27.19-.13,0-.22-.07-.27-.19l-1.34-3.79-1.33,3.79c-.04.12-.14.19-.27.19-.13,0-.23-.07-.27-.19l-1.55-4.25c-.03-.08-.04-.14-.04-.18,0-.16.11-.28.28-.28.13,0,.22.08.27.19l1.31,3.71,1.32-3.7c.04-.11.14-.19.27-.19.13,0,.22.08.27.19l1.32,3.69,1.3-3.7c.04-.11.14-.19.27-.19.17,0,.28.12.28.28Z"></path><path class="cls-1" d="m57.84,19.04c-.04-.05-.06-.11-.06-.17,0-.14.12-.26.27-.26.09,0,.16.04.22.11.32.4.72.62,1.18.62.58,0,.96-.32.96-.79,0-.35-.18-.55-.79-.83l-.53-.25c-.75-.36-1.07-.74-1.07-1.27,0-.71.61-1.24,1.43-1.24.53,0,.98.2,1.31.57.08.09.1.17.1.23,0,.13-.13.25-.27.25-.07,0-.14-.04-.19-.09-.26-.29-.59-.44-.96-.44-.5,0-.84.27-.84.69,0,.34.15.5.76.8l.52.25c.8.38,1.11.75,1.11,1.32,0,.78-.62,1.32-1.53,1.32-.61,0-1.23-.31-1.6-.81Z"></path></g><path class="cls-1" d="m39.93,7.9l4.25-4.12h0l2.67-2.56c.22-.2.31-.37.31-.57,0-.35-.3-.65-.67-.65-.19,0-.33.09-.55.3l-6.39,6.18c-.15.17-.24.33-.24.52s.09.35.22.5l.4.41Z"></path><g><path class="cls-1" d="m42.28,5.3l-1.03.84,5.23,6.33c.19.22.36.33.55.34.37.03.69-.24.72-.59.02-.22-.04-.37-.23-.56l-5.23-6.36Z"></path><polygon class="cls-1" points="63.45 3.89 63.43 3.92 63.45 3.89 63.45 3.89"></polygon></g></svg> 